<svg width="34" height="19" viewBox="0 0 34 19" fill="none" xmlns="http://www.w3.org/2000/svg">
<path d="M10.45 18.3C9.1 18.3 7.84167 18.0833 6.675 17.65C5.525 17.2 4.525 16.5667 3.675 15.75C2.825 14.9333 2.15833 13.975 1.675 12.875C1.20833 11.775 0.975 10.5667 0.975 9.25C0.975 7.93333 1.20833 6.725 1.675 5.625C2.15833 4.525 2.825 3.56667 3.675 2.75C4.54167 1.93333 5.55 1.30833 6.7 0.874998C7.85 0.424999 9.10833 0.2 10.475 0.2C11.9917 0.2 13.3583 0.466666 14.575 1C15.8083 1.51667 16.8417 2.28333 17.675 3.3L15.075 5.7C14.475 5.01667 13.8083 4.50833 13.075 4.175C12.3417 3.825 11.5417 3.65 10.675 3.65C9.85833 3.65 9.10833 3.78333 8.425 4.05C7.74167 4.31667 7.15 4.7 6.65 5.2C6.15 5.7 5.75833 6.29167 5.475 6.975C5.20833 7.65833 5.075 8.41667 5.075 9.25C5.075 10.0833 5.20833 10.8417 5.475 11.525C5.75833 12.2083 6.15 12.8 6.65 13.3C7.15 13.8 7.74167 14.1833 8.425 14.45C9.10833 14.7167 9.85833 14.85 10.675 14.85C11.5417 14.85 12.3417 14.6833 13.075 14.35C13.8083 14 14.475 13.475 15.075 12.775L17.675 15.175C16.8417 16.1917 15.8083 16.9667 14.575 17.5C13.3583 18.0333 11.9833 18.3 10.45 18.3ZM24.16 8.375H32.56V11.625H24.16V8.375ZM24.46 18H20.41V0.499999H33.635V3.75H24.46V18Z" fill="#0A76B0"/>
</svg>
